<?xml version="1.0" standalone="no"?>
<!DOCTYPE svg PUBLIC "-//W3C//DTD SVG 20010904//EN"
 "http://www.w3.org/TR/2001/REC-SVG-20010904/DTD/svg10.dtd">
<svg version="1.0" xmlns="http://www.w3.org/2000/svg"
 width="438.000000pt" height="512.000000pt" viewBox="0 0 438.000000 512.000000"
 preserveAspectRatio="xMidYMid meet">

<g transform="translate(0.000000,512.000000) scale(0.100000,-0.100000)"
fill="#000000" stroke="none">
<path d="M262 5113 c-30 -12 -42 -61 -42 -176 l0 -115 -85 -3 c-72 -3 -88 -7
-107 -27 l-23 -23 0 -995 0 -996 28 -24 c27 -23 33 -24 196 -24 155 0 170 2
195 21 34 27 36 79 4 109 -19 18 -35 20 -145 20 l-123 0 0 895 0 895 890 0
890 0 0 -895 0 -895 -611 0 c-411 0 -617 -3 -630 -11 -48 -25 -44 -105 7 -128
18 -8 214 -11 680 -11 l655 0 24 25 25 24 0 993 c-1 799 -3 996 -14 1010 -19
26 -61 38 -132 38 l-64 0 0 129 c0 184 27 171 -349 171 -227 -1 -300 -4 -313
-14 -29 -22 -38 -63 -38 -177 l0 -109 -130 0 -130 0 0 129 c0 184 27 171 -349
170 -163 0 -302 -3 -309 -6z m508 -218 l0 -75 -200 0 -200 0 0 75 0 75 200 0
200 0 0 -75z m960 0 l0 -75 -200 0 -200 0 0 75 0 75 200 0 200 0 0 -75z"/>
<path d="M355 4510 c-52 -20 -50 9 -50 -737 l0 -695 28 -24 c35 -30 59 -30 94
0 l28 24 3 646 3 646 643 0 643 0 21 23 c39 41 23 96 -32 117 -33 12 -1350 13
-1381 0z"/>
<path d="M2520 4300 c-18 -18 -20 -33 -20 -150 l0 -130 -80 0 c-73 0 -83 -3
-105 -25 l-25 -24 0 -941 0 -940 -30 0 -30 0 0 129 c0 184 26 171 -341 171
-194 0 -296 -4 -313 -11 -36 -17 -46 -57 -46 -180 l0 -109 -130 0 -130 0 0
125 c0 121 -1 127 -25 151 l-25 25 -305 -3 c-276 -3 -306 -5 -322 -21 -15 -15
-19 -39 -21 -146 l-4 -129 -84 -4 c-71 -4 -89 -8 -107 -27 l-22 -22 -3 -967
c-1 -532 0 -982 3 -1000 3 -17 16 -41 27 -52 22 -20 37 -20 1982 -20 2148 1
1988 -4 2006 61 13 45 13 284 0 330 -13 47 -55 68 -100 49 -39 -16 -50 -56
-50 -187 l0 -103 -1860 0 -1860 0 2 893 3 892 1858 3 1857 2 1 -577 c0 -421 3
-587 12 -613 23 -67 111 -67 134 0 16 46 18 2506 3 2561 -7 26 -19 40 -40 49
-45 19 -87 -2 -100 -49 -6 -22 -10 -261 -10 -628 l0 -593 -890 0 -890 0 0 890
0 890 889 0 889 0 3 -126 c4 -123 5 -126 32 -150 35 -30 59 -30 94 0 28 24 28
25 32 161 6 245 -4 265 -135 265 l-82 0 -4 129 c-4 187 28 171 -350 171 -380
0 -348 16 -348 -170 l0 -130 -129 0 -129 0 -3 129 c-6 187 27 171 -351 171
-295 0 -309 -1 -328 -20z m530 -205 l0 -75 -200 0 -200 0 0 75 0 75 200 0 200
0 0 -75z m960 0 l0 -75 -200 0 -200 0 0 75 0 75 200 0 200 0 0 -75z m-2890
-1930 l0 -75 -200 0 -200 0 0 75 0 75 200 0 200 0 0 -75z m960 0 l0 -75 -200
0 -200 0 0 75 0 75 200 0 200 0 0 -75z"/>
<path d="M1707 4262 c-15 -17 -17 -74 -17 -614 0 -564 1 -596 18 -611 23 -21
46 -22 66 -1 14 14 16 83 16 614 0 531 -2 600 -16 614 -21 21 -47 20 -67 -2z"/>
<path d="M1511 4066 c-8 -9 -10 -155 -9 -522 l3 -509 29 -10 c24 -8 31 -6 47
14 18 22 19 47 19 510 0 424 -2 489 -16 509 -17 25 -56 29 -73 8z"/>
<path d="M1310 3861 c-6 -13 -10 -159 -10 -408 0 -335 2 -392 16 -411 18 -26
46 -28 68 -6 14 13 16 65 16 418 0 299 -3 405 -12 414 -19 19 -66 15 -78 -7z"/>
<path d="M2615 3695 l-25 -24 0 -694 0 -694 23 -21 c33 -31 80 -29 106 4 21
26 21 34 21 665 l0 639 639 0 c631 0 639 0 665 21 34 27 36 79 4 109 -21 20
-31 20 -715 20 l-694 0 -24 -25z"/>
<path d="M1126 3672 c-15 -17 -16 -51 -14 -328 l3 -309 29 -10 c24 -8 31 -6
47 14 18 22 19 44 19 317 0 281 -1 295 -20 314 -25 25 -42 25 -64 2z"/>
<path d="M926 3468 c-13 -18 -16 -57 -16 -214 0 -173 2 -194 19 -215 16 -20
23 -22 47 -14 l29 10 3 215 c2 193 1 216 -15 227 -25 19 -50 16 -67 -9z"/>
<path d="M3265 3316 c-140 -32 -264 -94 -377 -188 -68 -57 -88 -89 -68 -113
21 -25 36 -18 118 50 146 124 314 186 502 186 188 0 356 -62 502 -186 82 -68
97 -75 118 -50 20 24 0 56 -69 114 -88 73 -183 125 -291 162 -86 29 -109 33
-235 35 -94 3 -160 -1 -200 -10z"/>
<path d="M737 3302 c-24 -26 -25 -243 -1 -266 21 -21 47 -20 67 2 14 15 17 40
17 130 0 99 -2 114 -20 132 -25 25 -42 25 -63 2z"/>
<path d="M545 3100 c-40 -45 20 -105 65 -65 25 23 25 47 2 68 -24 22 -45 21
-67 -3z"/>
<path d="M3300 3064 c-86 -22 -194 -80 -255 -135 -55 -51 -66 -74 -43 -97 20
-20 38 -14 94 37 198 176 490 176 688 0 56 -51 74 -57 94 -37 23 23 12 46 -43
97 -63 57 -170 113 -260 136 -74 19 -202 18 -275 -1z"/>
<path d="M3357 2820 c-55 -14 -93 -36 -143 -82 -45 -41 -53 -65 -32 -86 20
-20 43 -14 74 19 51 54 100 74 184 74 84 0 133 -20 184 -74 17 -17 37 -31 46
-31 21 0 40 20 40 41 0 23 -83 97 -136 120 -52 23 -162 33 -217 19z"/>
<path d="M3398 2564 c-72 -39 -41 -154 42 -154 84 0 115 116 40 155 -36 18
-47 18 -82 -1z"/>
<path d="M714 1783 c-12 -2 -30 -13 -40 -25 -18 -19 -19 -54 -22 -687 -2 -366
0 -681 3 -699 7 -38 40 -72 71 -72 12 0 33 9 48 21 l26 20 2 647 3 647 1618 5
c1588 5 1619 5 1633 24 21 29 18 80 -7 102 -21 19 -63 19 -1668 20 -905 1
-1656 -1 -1667 -3z"/>
<path d="M1152 1257 c-155 -156 -282 -287 -282 -293 0 -37 67 -72 85 -44 21
33 25 -11 25 -248 0 -238 1 -260 18 -275 17 -15 63 -17 454 -17 409 0 436 1
451 18 15 16 17 50 17 275 0 236 4 280 25 247 18 -28 85 7 85 44 0 17 -563
576 -580 576 -9 0 -142 -127 -298 -283z m485 -29 l183 -183 0 -277 0 -278
-370 0 -370 0 0 277 0 278 182 182 c101 101 185 183 188 183 3 0 87 -82 187
-182z"/>
<path d="M3540 1100 l0 -40 55 0 55 0 0 40 0 40 -55 0 -55 0 0 -40z"/>
<path d="M2120 895 l0 -225 55 0 54 0 3 143 3 142 37 -85 37 -85 42 0 42 0 36
85 36 85 3 -142 3 -143 59 0 60 0 0 225 0 225 -68 0 -68 0 -50 -111 -49 -112
-52 112 -52 111 -66 0 -65 0 0 -225z"/>
<path d="M2743 1013 c-31 -4 -33 -7 -33 -44 0 -38 1 -39 28 -32 15 5 53 8 85
8 46 0 62 -4 73 -19 8 -11 14 -23 14 -27 0 -4 -28 -10 -62 -14 -75 -8 -142
-35 -157 -63 -6 -12 -11 -38 -11 -59 1 -88 93 -130 185 -83 47 24 45 24 45 5
0 -12 13 -15 55 -15 l55 0 -1 118 c0 192 -23 224 -161 228 -46 1 -98 0 -115
-3z m167 -221 c0 -32 -5 -41 -25 -50 -56 -26 -100 -7 -93 40 3 24 49 46 96 47
19 1 22 -4 22 -37z"/>
<path d="M3262 1000 c-39 -24 -42 -24 -42 -5 0 12 -13 15 -55 15 l-55 0 0
-230 0 -230 55 0 55 0 0 66 c0 59 2 65 18 59 9 -4 37 -9 62 -12 95 -9 164 68
163 182 0 33 -7 77 -16 97 -30 71 -118 99 -185 58z m68 -80 c15 -15 20 -33 20
-75 0 -73 -30 -108 -88 -103 l-37 3 -3 85 c-2 71 0 87 14 97 26 19 71 16 94
-7z"/>
<path d="M3821 998 c-70 -36 -86 -65 -86 -158 0 -93 16 -122 86 -158 36 -19
55 -23 106 -19 114 8 168 65 168 177 0 112 -54 169 -169 177 -50 4 -69 0 -105
-19z m129 -68 c29 -15 45 -85 31 -132 -7 -21 -20 -42 -31 -48 -58 -31 -110 11
-110 90 0 79 52 121 110 90z"/>
<path d="M3540 840 l0 -170 55 0 55 0 0 170 0 170 -55 0 -55 0 0 -170z"/>
</g>
</svg>
